# xmcd CD database file
#
# Track frame offsets:
#	150
#	19102
#	35520
#
# Disc length: 596 seconds
#
# Revision: 0
# Processed by: cddbd v1.5PL3 Copyright (c) Steve Scherf et al.
# Submitted via: CDex 1.51
#
DISCID=1b025203
DTITLE=Natural Punch Drunker - 涙のカケラ
DYEAR=2004
DGENRE=J-Pop
TTITLE0=涙のカケラ
TTITLE1=時雨　止んだら
TTITLE2=丘を越えて
EXTD=YEAR: 2004
EXTT0=
EXTT1=
EXTT2=
PLAYORDER=
